<svg xmlns="http://www.w3.org/2000/svg" width="33.595" height="33.44" viewBox="0 0 33.595 33.44">
  <g id="Sample" transform="translate(-185.954 -181.863)">
    <path id="Path_34" data-name="Path 34" d="M218.011,205.858H203.025l11.2-10.132h0a1.538,1.538,0,0,0,.107-2.171l-4.275-4.723a1.534,1.534,0,0,0-2.176-.107L199.6,196.2l2.965-10.682h0a1.544,1.544,0,0,0-1.071-1.894l-6.139-1.7a1.529,1.529,0,0,0-1.168.146,1.5,1.5,0,0,0-.726.925l-7.128,25.731a4.723,4.723,0,0,0,4.343,6.582h27.332a1.538,1.538,0,0,0,1.539-1.538V207.4a1.538,1.538,0,0,0-1.539-1.538Zm-9.489-16.407a.565.565,0,0,1,.4-.141.584.584,0,0,1,.385.18l4.275,4.723a.555.555,0,0,1-.034.784l-1.884,1.709-5.015-5.545Zm-2.614,2.371,5.024,5.545-2.3,2.084-5.02-5.55Zm-3.023,2.736,5.02,5.545-2.293,2.079-5.024-5.545Zm-8.471-11.31a.574.574,0,0,1,.263-.331.56.56,0,0,1,.423-.054l6.139,1.7a.561.561,0,0,1,.385.682l-.682,2.434-7.206-2Zm-2.03,7.337,1.947.54a.407.407,0,0,0,.132,0,.491.491,0,1,0,.131-.974l-1.947-.545.828-2.95,7.206,2-.847,2.98-3.539-.974a.493.493,0,1,0-.263.949l3.539.974-.828,2.984-7.186-2Zm-1.091,3.934,7.206,2-.253.915-1.884,1.7-5.9-1.636Zm3.247,7.6,2.293-2.079,5.024,5.545-.3.273h-3.632Zm2.055,3.739h-6.188l3.408-3.082Zm-6.393-7.405,5.3,1.461-2.741,2.483a.4.4,0,0,0-.151-.073l-3.238-.9Zm-1.081,3.929,2.814.784s-3.963,3.554-4.031,3.6Zm4.956,11.938h-3.408a3.739,3.739,0,0,1,0-7.478h3.408Zm4.085,0h-3.1v-7.478h3.1Zm4.08,0h-3.1v-7.478h3.121Zm-4.679-14.942,2.3-2.079,5.02,5.545-2.293,2.079ZM210.4,214.32h-3.1v-.808a.487.487,0,0,0-.974,0v.808H203.24v-7.478h3.1v4.7a.487.487,0,1,0,.974,0v-4.7h3.1Zm4.085,0h-3.1v-7.478h3.1Zm4.08-.555h0a.555.555,0,0,1-.555.555H215.47v-7.478h2.541a.555.555,0,0,1,.555.555Z" fill="#fff"/>
    <path id="Path_35" data-name="Path 35" d="M259.882,843.24a1.884,1.884,0,1,0,1.332.552A1.884,1.884,0,0,0,259.882,843.24Zm0,2.78h0a.372.372,0,1,1,0,.01Z" transform="translate(-69.121 -634.544)" fill="#fff"/>
  </g>
</svg>
